Coordinates
version=1
nRows=6
nColumns=38
inDegrees=yes

Units are S.I. units (second, meters, Newtons, ...)
Angles are in degrees.

endheader
time	pelvis_tilt	pelvis_list	pelvis_rotation	pelvis_tx	pelvis_ty	pelvis_tz	hip_flexion_r	hip_adduction_r	hip_rotation_r	knee_angle_r	ankle_angle_r	subtalar_angle_r	mtp_angle_r	hip_flexion_l	hip_adduction_l	hip_rotation_l	knee_angle_l	ankle_angle_l	subtalar_angle_l	mtp_angle_l	lumbar_extension	lumbar_bending	lumbar_rotation	arm_flex_r	arm_add_r	arm_rot_r	elbow_flex_r	pro_sup_r	wrist_flex_r	wrist_dev_r	arm_flex_l	arm_add_l	arm_rot_l	elbow_flex_l	pro_sup_l	wrist_flex_l	wrist_dev_l
      0.26000000	     -1.04986257	      0.56794704	     -3.59176112	     -0.15691042	      0.97100235	     -0.24137979	     -5.07543597	     -4.24996562	      4.93963220	      4.32683825	      5.92877754	     -8.45801673	      0.00000000	     -6.32177711	     -2.64500576	     -2.76270705	      4.48861508	      5.49485394	    -14.79270534	      0.00000000	      2.29941904	     -0.34466717	     -2.33361217	     -7.18969054	     -2.43193830	      0.72060473	     22.15248927	     44.95413773	      0.00000000	      0.00000000	    -10.20626434	     -6.57099574	      2.88561693	     24.22453763	     44.95413773	      0.00000000	      0.00000000
      0.27000000	     -0.90764730	      0.55985278	     -3.59630875	     -0.15681641	      0.97116897	     -0.24134403	     -5.28795837	     -4.25816351	      5.17732856	      4.42391832	      5.81165158	     -8.83240825	      0.00000000	     -6.53319299	     -2.65048512	     -2.50412658	      4.58643622	      5.33093948	    -15.20498322	      0.00000000	      2.13260623	     -0.34747397	     -2.33444219	     -6.74339758	     -2.31776369	      0.56370846	     20.99358551	     44.95991178	      0.00000000	      0.00000000	     -9.79496967	     -6.45122616	      2.80838033	     23.17064438	     44.95991178	      0.00000000	      0.00000000
      0.28000000	     -1.11967708	      0.57041852	     -3.58320003	     -0.15693662	      0.97087736	     -0.24134070	     -4.98599685	     -4.24751928	      5.00133442	      4.29635730	      5.95846410	     -8.47538089	      0.00000000	     -6.22714538	     -2.65925352	     -2.69244394	      4.44761146	      5.55180078	    -14.78144743	      0.00000000	      2.38110006	     -0.36142471	     -2.31920671	     -7.26456913	     -2.41993291	      0.55738509	     22.29392713	     44.96248248	      0.00000000	      0.00000000	    -10.26915003	     -6.55910162	      2.76396631	     24.37749641	     44.96248248	      0.00000000	      0.00000000
      0.29000000	     -1.25381714	      0.55242402	     -3.56937776	     -0.15717451	      0.97061500	     -0.24140142	     -4.69749718	     -4.19865775	      4.88064000	      4.02816712	      6.30562882	     -8.35228996	      0.00000000	     -5.98930658	     -2.68701376	     -2.78010048	      4.29387205	      5.84787387	    -14.59740538	      0.00000000	      2.49343949	     -0.32234029	     -2.30822782	     -7.27593278	     -2.57430182	      0.54147663	     23.37515102	     44.96444149	      0.00000000	      0.00000000	    -10.19920340	     -6.69253634	      2.69333746	     25.46591697	     44.96444149	      0.00000000	      0.00000000
      0.30000000	     -0.91069998	      0.54997294	     -3.58523219	     -0.15677113	      0.97117082	     -0.24132638	     -5.29589891	     -4.24478885	      5.17430632	      4.44141582	      5.76602063	     -8.87607816	      0.00000000	     -6.54340780	     -2.66418617	     -2.52136451	      4.60800034	      5.35572942	    -15.15031150	      0.00000000	      2.14363517	     -0.35760824	     -2.31791224	     -6.86353041	     -2.28819021	      0.11891590	     21.39201247	     44.96820159	      0.00000000	      0.00000000	     -9.91106057	     -6.40944486	      2.32747430	     23.64362506	     44.96820159	      0.00000000	      0.00000000
      0.31000000	     -1.01197691	      0.55204902	     -3.59064123	     -0.15678610	      0.97102567	     -0.24129963	     -5.16825473	     -4.23967843	      5.08446142	      4.40532641	      5.84671258	     -8.67639232	      0.00000000	     -6.41482092	     -2.67149881	     -2.64901019	      4.57223563	      5.42590076	    -14.92602414	      0.00000000	      2.27537823	     -0.36178914	     -2.30563144	     -7.08100193	     -2.33273559	      0.16172932	     21.88919492	     44.96940238	      0.00000000	      0.00000000	    -10.14215531	     -6.44537752	      2.33383654	     24.11889131	     44.96940238	      0.00000000	      0.00000000
